<svg width="29" height="29" viewBox="0 0 29 29" fill="none" xmlns="http://www.w3.org/2000/svg">
<path d="M28.1939 9.94458L19.0532 0.802333C18.5437 0.292417 17.8676 0 17.1977 0C16.7119 0 16.2779 0.153217 15.9401 0.4437L0.85439 13.4222C0.597666 13.6403 0.389247 13.9095 0.242444 14.2127C0.0956405 14.5158 0.0136802 14.8463 0.00179748 15.1829C-0.0252689 15.905 0.254095 16.5972 0.788657 17.1322L11.867 28.2117C12.376 28.7201 13.0348 29 13.7221 29C14.0744 28.9995 14.4225 28.9229 14.7425 28.7754C15.0625 28.628 15.3469 28.4131 15.5761 28.1455L28.5525 13.0582C29.2674 12.2278 29.1098 10.8605 28.1939 9.94458ZM0.880006 15.2158C0.887676 15.0001 0.940303 14.7884 1.03452 14.5942C1.12873 14.4001 1.26246 14.2277 1.42713 14.0882L16.5138 1.11022C16.6887 0.958933 16.9256 0.8787 17.1977 0.8787C17.6298 0.8787 18.0914 1.08267 18.4321 1.4239L19.2243 2.2156L2.40249 17.503L1.41022 16.5102C1.05014 16.1501 0.86164 15.6904 0.880006 15.2158ZM27.886 12.4855L14.9106 27.5727C14.7645 27.7454 14.5824 27.8839 14.3771 27.9787C14.1718 28.0735 13.9482 28.1222 13.7221 28.1213C13.2692 28.1213 12.8308 27.9323 12.4876 27.5896L6.29957 21.4005L22.4626 5.45538L27.5728 10.5657C28.1547 11.1481 28.2959 12.0099 27.886 12.4855Z" fill="black"/>
</svg>
