<svg width="24" height="20" viewBox="0 0 24 20" fill="none" xmlns="http://www.w3.org/2000/svg">
<path d="M20.682 5C20.7663 5 20.8472 4.9646 20.9069 4.90158C20.9665 4.83855 21 4.75308 21 4.66396V3.54493C20.9997 3.25307 20.8898 2.97327 20.6945 2.76689C20.4992 2.56051 20.2344 2.44441 19.9582 2.44406H18.2492L17.8593 1.22825C17.8328 1.14557 17.7769 1.07703 17.7034 1.03714C17.6299 0.997247 17.5446 0.989138 17.4656 1.01453L8.20944 3.98784C8.13282 4.01737 8.06985 4.07682 8.03346 4.15395C7.99708 4.23107 7.99007 4.32 8.01387 4.40242C8.03767 4.48485 8.09047 4.55449 8.1614 4.59702C8.23233 4.63954 8.31599 4.65171 8.39516 4.63102L17.3562 1.75181L18.2104 4.41663C18.2374 4.50103 18.2951 4.57061 18.3708 4.61006C18.4464 4.64951 18.5337 4.6556 18.6136 4.62699C18.6935 4.59838 18.7593 4.53742 18.7967 4.45751C18.834 4.3776 18.8398 4.28529 18.8127 4.20089L18.4648 3.11547H19.9588C20.1827 3.11547 20.3646 3.30769 20.3646 3.54426V4.66396C20.364 4.84945 20.5064 5 20.682 5Z" fill="black"/>
<path d="M23.0526 9.37542C22.9689 9.37542 22.8886 9.40835 22.8293 9.46695C22.7701 9.52555 22.7368 9.60503 22.7368 9.68791C22.7368 9.77079 22.7701 9.85027 22.8293 9.90887C22.8886 9.96748 22.9689 10.0004 23.0526 10.0004C23.2743 10.0004 23.3684 10.0935 23.3684 10.3129V14.0627C23.3684 14.2821 23.2743 14.3752 23.0526 14.3752H18C17.7783 14.3752 17.6842 14.2821 17.6842 14.0627V10.9379C17.6842 10.7185 17.7783 10.6254 18 10.6254H21.7895C21.8732 10.6254 21.9535 10.5925 22.0128 10.5338C22.072 10.4752 22.1053 10.3958 22.1053 10.3129V6.56304C22.1053 5.99368 21.7333 5.62557 21.1579 5.62557H1.89474C1.116 5.62557 0.631579 5.14622 0.631579 4.37562C0.631579 3.60503 1.116 3.12567 1.89474 3.12567H5.10063L3.18947 3.7494C3.14866 3.76104 3.11064 3.78072 3.07769 3.80724C3.04474 3.83377 3.01754 3.86659 2.99771 3.90376C2.97788 3.94093 2.96583 3.98168 2.96229 4.02357C2.95874 4.06545 2.96377 4.10761 2.97708 4.14753C2.99038 4.18744 3.01169 4.22429 3.03972 4.25587C3.06775 4.28745 3.10193 4.31311 3.14021 4.33131C3.1785 4.34952 3.2201 4.35989 3.26253 4.36181C3.30497 4.36373 3.34735 4.35716 3.38716 4.3425L14.8307 0.609522C14.8701 0.596637 14.9066 0.576199 14.938 0.549375C14.9694 0.522552 14.9952 0.489868 15.0138 0.453191C15.0325 0.416513 15.0436 0.376559 15.0467 0.335611C15.0497 0.294663 15.0446 0.253522 15.0316 0.214538C15.0186 0.175553 14.9979 0.139488 14.9708 0.108402C14.9437 0.077316 14.9107 0.0518176 14.8736 0.0333627C14.8365 0.0149078 14.7962 0.00385781 14.7548 0.000843641C14.7134 -0.00217053 14.6718 0.00291015 14.6324 0.0157956L6.99032 2.50945C6.97579 2.50695 6.96253 2.5007 6.94737 2.5007H1.89474C0.761684 2.5007 0 3.25442 0 4.37562V18.1251C0 19.2463 0.761684 20 1.89474 20H21.1579C21.7333 20 22.1053 19.6319 22.1053 19.0625V15.9377C22.1053 15.8548 22.072 15.7753 22.0128 15.7167C21.9535 15.6581 21.8732 15.6252 21.7895 15.6252C21.7057 15.6252 21.6254 15.6581 21.5662 15.7167C21.507 15.7753 21.4737 15.8548 21.4737 15.9377V19.0625C21.4737 19.2819 21.3796 19.375 21.1579 19.375H1.89474C1.116 19.375 0.631579 18.8957 0.631579 18.1251V5.82057C0.955579 6.09118 1.38442 6.25055 1.89474 6.25055H21.1579C21.3796 6.25055 21.4737 6.34367 21.4737 6.56304V10.0004H18C17.4246 10.0004 17.0526 10.3685 17.0526 10.9379V14.0627C17.0526 14.6321 17.4246 15.0002 18 15.0002H23.0526C23.628 15.0002 24 14.6321 24 14.0627V10.3129C24 9.74353 23.628 9.37542 23.0526 9.37542Z" fill="black"/>
<path d="M20.5 13C20.7761 13 21 12.7761 21 12.5C21 12.2239 20.7761 12 20.5 12C20.2239 12 20 12.2239 20 12.5C20 12.7761 20.2239 13 20.5 13Z" fill="black"/>
</svg>
